<?xml version="1.0" encoding="utf-8"?>
<!DOCTYPE svg PUBLIC "-//W3C//DTD SVG 1.1//EN" "http://www.w3.org/Graphics/SVG/1.1/DTD/svg11.dtd" [
	<!ENTITY ns_flows "http://ns.adobe.com/Flows/1.0/">
]>
<svg version="1.1"
	 xmlns="http://www.w3.org/2000/svg" xmlns:xlink="http://www.w3.org/1999/xlink" xmlns:a="http://ns.adobe.com/AdobeSVGViewerExtensions/3.0/"
	 x="0px" y="0px" viewBox="0 0 260 40"
	 xml:space="preserve">
<defs>
</defs>
<path fill="#222" d="M60.926,5.901h6.161V28.9h10.842v5.75H60.926V5.901z"/>
<rect fill="#2483A1" rx="2" ry="2" width="53" height="40"/>
<path fill="#222" d="M92.302,5.408c8.173,0,14.744,6.653,14.744,14.908c0,8.215-6.53,14.868-14.703,14.868c-8.173,0-14.745-6.652-14.745-14.868
	C77.598,12.062,84.128,5.408,92.302,5.408z M92.343,29.146c4.518,0,8.255-3.983,8.255-8.831c0-4.846-3.778-8.871-8.296-8.871
	c-4.559,0-8.255,4.025-8.255,8.871C84.047,25.163,87.784,29.146,92.343,29.146z"/>
<g>
	<g>
		<path fill="#fff" d="M13.057,5.901v19.221c0,2.218,1.848,4.065,4.107,4.065s4.107-1.848,4.107-4.065V5.901l6.119,2.013v17.208
			c0,5.626-4.558,10.062-10.267,10.062c-5.709,0-10.186-4.436-10.186-10.062V5.901H13.057z"/>
	</g>
</g>
<g>
	<g>
		<path fill="#FFFFFF" d="M21.233,5.901h5.257l11.87,12.731V5.901h5.914v29.282L27.148,16.045v6.199h-5.915V5.901z"/>
	</g>
</g>
<path fill="#222" d="M129.714,33.993c-1.972,0.821-3.737,1.19-5.832,1.19c-8.173,0-14.703-6.652-14.703-14.868
	c0-8.254,6.53-14.908,14.703-14.908c2.095,0,3.86,0.369,5.832,1.19v7.146c-1.396-1.355-3.409-2.299-5.832-2.299
	c-4.559,0-8.255,4.025-8.255,8.871c0,4.847,3.696,8.831,8.255,8.831c2.423,0,4.436-0.945,5.832-2.301V33.993z"/>
<path fill="#222" d="M140.02,29.27l-2.3,5.381h-6.53l12.896-29.283l12.896,29.283h-6.53l-2.218-5.381H140.02z M144.086,18.797l-1.972,4.969
	h4.024L144.086,18.797z"/>
<path fill="#222" d="M159.771,5.901h6.159V28.9h10.844v5.75h-17.003V5.901z"/>
<path fill="#222" d="M180.511,5.901h6.159V34.65h-6.159V5.901z"/>
<path fill="#222" d="M189.75,34.65l10.637-22.754h-8.584V5.901h18.318l-10.762,22.712h10.062v6.037H189.75z"/>
<path fill="#222" d="M213.609,5.901h17.741v5.995H219.77v4.107h11.048v5.914H219.77v6.695h11.787v6.037h-17.947V5.901z"/>
<path fill="#222" d="M253.485,24.096c3.285,2.463,3.983,5.338,3.983,8.337v2.218h-6.161v-2.218c0-3.04-2.054-5.546-5.175-5.546h-3.778v7.764
	h-6.159V5.901h10.636c5.874,0,10.638,4.764,10.638,10.596C257.469,20.358,255.579,22.453,253.485,24.096z M246.256,11.568h-3.901
	v9.816h3.901c2.711,0,4.93-2.218,4.93-4.888C251.186,13.787,248.967,11.568,246.256,11.568z"/>
</svg>
